<svg width="31" height="25" viewBox="0 0 31 25" fill="none" xmlns="http://www.w3.org/2000/svg">
<path d="M27.4886 6.01969C27.5074 6.28207 27.5074 6.54444 27.5074 6.80929C27.5074 14.8767 21.1873 24.181 9.63069 24.181V24.176C6.21667 24.1808 2.87337 23.2307 0 21.439C0.496673 21.4969 0.995162 21.5263 1.49546 21.5271C4.32511 21.5294 7.07338 20.6071 9.29859 18.9085C7.98754 18.8844 6.71702 18.4628 5.66462 17.7026C4.61222 16.9424 3.83055 15.8817 3.42885 14.6687C4.37015 14.8452 5.34057 14.8092 6.2653 14.5636C3.33426 13.9881 1.22546 11.4855 1.22546 8.57911V8.50174C2.09924 8.9747 3.07715 9.23677 4.07689 9.26588C1.31632 7.47291 0.465313 3.90401 2.13227 1.11363C3.70952 2.99995 5.67753 4.54269 7.90842 5.64162C10.1393 6.74056 12.5832 7.37109 15.0812 7.49225C14.8322 6.45043 14.8689 5.36332 15.1879 4.33965C15.5069 3.31598 16.0968 2.39163 16.8988 1.65904C19.4293 -0.65255 23.4092 -0.534012 25.788 1.92373C27.195 1.65381 28.5443 1.15256 29.7778 0.44158C29.3088 1.85523 28.3272 3.05519 27.0159 3.81821C28.2613 3.67548 29.4776 3.35151 30.6238 2.85716C29.7807 4.08426 28.719 5.15512 27.4886 6.01969Z" fill="#012F42"/>
</svg>
