<svg width="44" height="43" viewBox="0 0 44 43" fill="none" xmlns="http://www.w3.org/2000/svg">
<path fill-rule="evenodd" clip-rule="evenodd" d="M30.0488 42.55V26.0725H35.7411L36.5927 19.6517H30.0466V15.552C30.0466 13.6926 30.5786 12.4246 33.3241 12.4246H36.8226V6.68035C35.1284 6.50346 33.4254 6.41823 31.7214 6.42505C26.6772 6.42505 23.2246 9.41844 23.2246 14.9138V19.6517H17.5148V26.0725H23.2224V42.55H2.41704C1.08154 42.55 0 41.499 0 40.2012V2.34876C0 1.05099 1.08154 0 2.41704 0H41.3699C42.7054 0 43.7869 1.05099 43.7869 2.34876V40.2012C43.7869 41.499 42.7054 42.55 41.3699 42.55H30.0488Z" fill="#FE8F02"/>
</svg>
