<svg width="44" height="43" viewBox="0 0 44 43" fill="none" xmlns="http://www.w3.org/2000/svg">
<path d="M31.4556 0C34.6643 0 37.7415 1.23863 40.0104 3.44341C42.2793 5.64819 43.5539 8.63851 43.5539 11.7565V30.567C43.5539 33.685 42.2793 36.6754 40.0104 38.8801C37.7415 41.0849 34.6643 42.3236 31.4556 42.3236H12.0983C8.88964 42.3236 5.81239 41.0849 3.54351 38.8801C1.27464 36.6754 0 33.685 0 30.567V11.7565C0 8.63851 1.27464 5.64819 3.54351 3.44341C5.81239 1.23863 8.88964 0 12.0983 0H31.4556ZM21.777 11.7565C19.21 11.7565 16.7482 12.7474 14.9331 14.5113C13.118 16.2751 12.0983 18.6674 12.0983 21.1618C12.0983 23.6562 13.118 26.0485 14.9331 27.8123C16.7482 29.5761 19.21 30.567 21.777 30.567C24.3439 30.567 26.8057 29.5761 28.6208 27.8123C30.4359 26.0485 31.4556 23.6562 31.4556 21.1618C31.4556 18.6674 30.4359 16.2751 28.6208 14.5113C26.8057 12.7474 24.3439 11.7565 21.777 11.7565ZM21.777 16.4592C23.0604 16.4592 24.2913 16.9546 25.1989 17.8365C26.1064 18.7184 26.6163 19.9146 26.6163 21.1618C26.6163 22.409 26.1064 23.6051 25.1989 24.487C24.2913 25.3689 23.0604 25.8644 21.777 25.8644C20.4935 25.8644 19.2626 25.3689 18.355 24.487C17.4475 23.6051 16.9376 22.409 16.9376 21.1618C16.9376 19.9146 17.4475 18.7184 18.355 17.8365C19.2626 16.9546 20.4935 16.4592 21.777 16.4592ZM32.6654 8.22958C32.0237 8.22958 31.4083 8.47731 30.9545 8.91826C30.5007 9.35922 30.2458 9.95728 30.2458 10.5809C30.2458 11.2045 30.5007 11.8026 30.9545 12.2435C31.4083 12.6845 32.0237 12.9322 32.6654 12.9322C33.3072 12.9322 33.9226 12.6845 34.3764 12.2435C34.8302 11.8026 35.0851 11.2045 35.0851 10.5809C35.0851 9.95728 34.8302 9.35922 34.3764 8.91826C33.9226 8.47731 33.3072 8.22958 32.6654 8.22958Z" fill="#FE8F02"/>
</svg>
