<svg width="44" height="43" viewBox="0 0 44 43" fill="none" xmlns="http://www.w3.org/2000/svg">
<path d="M38.9217 0C40.2121 0 41.4495 0.498103 42.362 1.38473C43.2744 2.27136 43.7869 3.47389 43.7869 4.72778V37.8222C43.7869 39.0761 43.2744 40.2786 42.362 41.1653C41.4495 42.0519 40.2121 42.55 38.9217 42.55H4.86522C3.57488 42.55 2.33739 42.0519 1.42499 41.1653C0.512584 40.2786 0 39.0761 0 37.8222V4.72778C0 3.47389 0.512584 2.27136 1.42499 1.38473C2.33739 0.498103 3.57488 0 4.86522 0H38.9217ZM37.7054 36.6403V24.1117C37.7054 22.0678 36.8699 20.1077 35.3827 18.6625C33.8955 17.2173 31.8784 16.4054 29.7751 16.4054C27.7074 16.4054 25.2991 17.6346 24.1315 19.4784V16.8545H17.3445V36.6403H24.1315V24.9863C24.1315 23.1661 25.6397 21.6769 27.5128 21.6769C28.416 21.6769 29.2823 22.0255 29.921 22.6462C30.5596 23.2668 30.9184 24.1086 30.9184 24.9863V36.6403H37.7054ZM9.43852 13.1432C10.5224 13.1432 11.5619 12.7248 12.3283 11.98C13.0947 11.2353 13.5253 10.2252 13.5253 9.17189C13.5253 6.97347 11.7008 5.17692 9.43852 5.17692C8.34819 5.17692 7.30251 5.59781 6.53153 6.34702C5.76054 7.09622 5.32741 8.11236 5.32741 9.17189C5.32741 11.3703 7.17619 13.1432 9.43852 13.1432ZM12.8198 36.6403V16.8545H6.08152V36.6403H12.8198Z" fill="#FE8F02"/>
</svg>
