<svg width="43" height="31" viewBox="0 0 43 31" fill="none" xmlns="http://www.w3.org/2000/svg">
<path d="M21.6154 0H21.8543C24.0612 0.00805442 35.2435 0.0885991 38.2585 0.899411C39.17 1.14687 40.0005 1.6292 40.6672 2.29822C41.3339 2.96723 41.8133 3.7995 42.0575 4.71184C42.3287 5.73206 42.5193 7.08252 42.6482 8.47594L42.675 8.75516L42.7341 9.45321L42.7556 9.73243C42.9301 12.1863 42.9515 14.4845 42.9542 14.9866V15.188C42.9515 15.7088 42.9274 18.1627 42.7341 20.7187L42.7126 21.0006L42.6884 21.2798C42.5542 22.8155 42.3555 24.3405 42.0575 25.4627C41.8133 26.3751 41.3339 27.2073 40.6672 27.8763C40.0005 28.5454 39.17 29.0277 38.2585 29.2751C35.1441 30.1128 23.3068 30.1719 21.6664 30.1746H21.2852C20.4555 30.1746 17.0244 30.1584 13.4267 30.0349L12.9703 30.0188L12.7367 30.0081L12.2776 29.9893L11.8185 29.9705C8.83839 29.8389 6.00054 29.6269 4.69304 29.2725C3.78189 29.0252 2.95154 28.5433 2.28491 27.8748C1.61828 27.2063 1.13869 26.3746 0.894041 25.4627C0.596027 24.3431 0.397351 22.8155 0.263111 21.2798L0.241633 20.9979L0.220154 20.7187C0.0868896 18.8995 0.0134652 17.0764 0 15.2524L0 14.9222C0.00536961 14.3449 0.0268481 12.3501 0.171828 10.1486L0.190621 9.87204L0.198676 9.73243L0.220154 9.45321L0.27922 8.75516L0.306068 8.47594C0.434939 7.08252 0.62556 5.72938 0.896726 4.71184C1.14096 3.7995 1.62037 2.96723 2.28703 2.29822C2.95369 1.6292 3.78425 1.14687 4.69573 0.899411C6.00323 0.550386 8.84107 0.335601 11.8212 0.20136L12.2776 0.182567L12.7394 0.166458L12.9703 0.158404L13.4294 0.13961C15.9846 0.0574646 18.5408 0.0118179 21.0972 0.00268493L21.6154 0ZM17.1828 8.61823V21.5536L28.3435 15.0886L17.1828 8.61823Z" fill="#FE8F02"/>
</svg>
